<mxfile host="65bd71144e">
    <diagram id="bpMunQD3PL20XGcsqLX9" name="Page-1">
        <mxGraphModel dx="897" dy="797" grid="0" gridSize="10" guides="1" tooltips="1" connect="1" arrows="1" fold="1" page="1" pageScale="1" pageWidth="850" pageHeight="1100" math="0" shadow="0">
            <root>
                <mxCell id="0"/>
                <mxCell id="1" parent="0"/>
                <mxCell id="3" value="AWS Cloud" style="sketch=0;outlineConnect=0;gradientColor=none;html=1;whiteSpace=wrap;fontSize=12;fontStyle=0;shape=mxgraph.aws4.group;grIcon=mxgraph.aws4.group_aws_cloud;strokeColor=#AAB7B8;fillColor=none;verticalAlign=top;align=left;spacingLeft=30;fontColor=#AAB7B8;dashed=0;" parent="1" vertex="1">
                    <mxGeometry x="80" y="80" width="680" height="530" as="geometry"/>
                </mxCell>
                <mxCell id="5" value="          Organization" style="rounded=1;arcSize=0;dashed=0;fillColor=none;gradientColor=none;strokeWidth=2;verticalAlign=top;align=left;fontColor=#AAB7B8;" vertex="1" parent="1">
                    <mxGeometry x="115" y="141" width="616" height="448" as="geometry"/>
                </mxCell>
                <mxCell id="7" value="" style="sketch=0;points=[[0,0,0],[0.25,0,0],[0.5,0,0],[0.75,0,0],[1,0,0],[0,1,0],[0.25,1,0],[0.5,1,0],[0.75,1,0],[1,1,0],[0,0.25,0],[0,0.5,0],[0,0.75,0],[1,0.25,0],[1,0.5,0],[1,0.75,0]];outlineConnect=0;fontColor=#232F3E;gradientColor=#F54749;gradientDirection=north;fillColor=#C7131F;strokeColor=#ffffff;dashed=0;verticalLabelPosition=bottom;verticalAlign=top;align=center;html=1;fontSize=12;fontStyle=0;aspect=fixed;shape=mxgraph.aws4.resourceIcon;resIcon=mxgraph.aws4.organizations;" vertex="1" parent="1">
                    <mxGeometry x="115" y="141" width="32" height="32" as="geometry"/>
                </mxCell>
                <mxCell id="8" value="             Rio de Janeiro" style="rounded=1;arcSize=0;dashed=0;fillColor=none;gradientColor=none;strokeWidth=2;verticalAlign=top;align=left;fontColor=#AAB7B8;" vertex="1" parent="1">
                    <mxGeometry x="205" y="393" width="441" height="143" as="geometry"/>
                </mxCell>
                <mxCell id="10" value="" style="sketch=0;outlineConnect=0;fontColor=#232F3E;gradientColor=none;fillColor=#BF0816;strokeColor=none;dashed=0;verticalLabelPosition=bottom;verticalAlign=top;align=center;html=1;fontSize=12;fontStyle=0;aspect=fixed;pointerEvents=1;shape=mxgraph.aws4.organizations_organizational_unit;" vertex="1" parent="1">
                    <mxGeometry x="205" y="393" width="39.58" height="34" as="geometry"/>
                </mxCell>
                <mxCell id="11" value="&lt;font color=&quot;#aab7b8&quot;&gt;DEV&lt;/font&gt;" style="sketch=0;outlineConnect=0;fontColor=#232F3E;gradientColor=none;fillColor=#B0084D;strokeColor=none;dashed=0;verticalLabelPosition=bottom;verticalAlign=top;align=center;html=1;fontSize=12;fontStyle=0;aspect=fixed;pointerEvents=1;shape=mxgraph.aws4.organizations_account;" vertex="1" parent="1">
                    <mxGeometry x="289" y="437" width="59" height="62.19" as="geometry"/>
                </mxCell>
                <mxCell id="12" value="&lt;font color=&quot;#aab7b8&quot;&gt;Pord&lt;/font&gt;" style="sketch=0;outlineConnect=0;fontColor=#232F3E;gradientColor=none;fillColor=#B0084D;strokeColor=none;dashed=0;verticalLabelPosition=bottom;verticalAlign=top;align=center;html=1;fontSize=12;fontStyle=0;aspect=fixed;pointerEvents=1;shape=mxgraph.aws4.organizations_account;" vertex="1" parent="1">
                    <mxGeometry x="462" y="433.4" width="59" height="62.19" as="geometry"/>
                </mxCell>
                <mxCell id="13" value="&lt;font color=&quot;#aab7b8&quot;&gt;ROOT&lt;/font&gt;" style="sketch=0;outlineConnect=0;fontColor=#232F3E;gradientColor=none;fillColor=#B0084D;strokeColor=none;dashed=0;verticalLabelPosition=bottom;verticalAlign=top;align=center;html=1;fontSize=12;fontStyle=0;aspect=fixed;pointerEvents=1;shape=mxgraph.aws4.organizations_account;" vertex="1" parent="1">
                    <mxGeometry x="390.5" y="268" width="59" height="62.19" as="geometry"/>
                </mxCell>
            </root>
        </mxGraphModel>
    </diagram>
</mxfile>